<svg id="Capa_1" enable-background="new 0 0 512 512" height="512" viewBox="0 0 512 512" width="512" xmlns="http://www.w3.org/2000/svg"><g><g><path d="m255.617 7.517c-109.131.206-198.075 89.727-197.609 198.857.006 1.345.025 2.687.057 4.026 1 41.252 15.859 80.971 41.301 113.458l132.099 168.676c12.477 15.931 36.591 15.931 49.068 0l132.09-168.664c25.637-32.735 40.511-72.809 41.331-114.38.026-1.324.039-2.65.039-3.98 0-109.476-88.851-198.2-198.376-197.993z" fill="#a6e7f0"/></g><g><path d="m453.995 205.515c0 1.323-.01 2.656-.04 3.979-.822 41.571-15.695 81.639-41.331 114.381l-132.09 168.661c-11.806 15.073-34.015 15.885-46.943 2.445 10.493 1.433 21.597-2.455 28.813-11.666l132.09-168.661c25.636-32.732 40.509-72.81 41.331-114.381.03-1.323.04-2.646.04-3.979 0-73.441-39.988-137.552-99.378-171.737 69.242 30.848 117.508 100.261 117.508 180.958z" fill="#6bd9e7"/></g><g><circle cx="256" cy="200.816" fill="#faf7f7" r="139.177"/></g><g><path d="m395.176 200.815c0 76.869-62.307 139.176-139.176 139.176-29.304 0-56.494-9.05-78.923-24.524 18.631 9.26 39.637 14.462 61.856 14.462 76.869 0 139.186-62.317 139.186-139.176 0-47.555-23.852-89.537-60.242-114.642 45.82 22.78 77.299 70.074 77.299 124.704z" fill="#ede1dd"/></g><g><g><path d="m236.733 264.44c-5.821 0-11.425-2.259-15.623-6.316l-37.44-36.186c-8.927-8.629-9.17-22.861-.542-31.789 8.628-8.926 22.858-9.173 31.79-.542l20.901 20.201 60.369-65.385c8.422-9.123 22.646-9.69 31.768-1.268 9.121 8.423 9.689 22.646 1.266 31.768l-75.972 82.285c-4.104 4.447-9.828 7.05-15.878 7.222-.212.008-.426.01-.639.01z" fill="#8d9ca8"/></g></g><g><g><path d="m329.221 174.928-75.967 82.281c-4.109 4.45-9.832 7.046-15.885 7.226-.21 0-.421.01-.641.01-5.813 0-11.425-2.265-15.614-6.324l-10.663-10.313c3.117 1.594 6.594 2.435 10.152 2.435.21 0 .421 0 .641-.01 6.043-.17 11.766-2.776 15.875-7.226l75.967-82.281c5.913-6.394 7.396-15.314 4.6-22.971 3.718.832 7.276 2.626 10.273 5.402 9.119 8.419 9.69 22.641 1.262 31.771z" fill="#7a8c98"/></g></g><g><path d="m401.179 60.055c-38.811-38.739-90.351-60.055-145.177-60.055-.131 0-.268 0-.399 0-54.783.104-106.352 21.691-145.207 60.787-38.864 39.104-60.138 90.82-59.904 145.618.006 1.396.025 2.789.059 4.177 1.018 42.013 16.253 83.888 42.898 117.91l20.477 26.147c2.56 3.27 7.284 3.843 10.552 1.283 3.268-2.559 3.843-7.283 1.284-10.552l-20.477-26.147c-24.664-31.492-38.765-70.204-39.705-109.007-.031-1.288-.05-2.578-.055-3.874-.217-50.778 19.505-98.707 55.533-134.958 36.02-36.243 83.812-56.255 134.573-56.351h.369c50.813 0 98.589 19.759 134.559 55.661 36.059 35.991 55.917 83.87 55.917 134.816 0 1.28-.012 2.556-.038 3.833-.771 39.135-14.882 78.162-39.733 109.894l-132.088 168.663c-4.513 5.762-11.298 9.067-18.617 9.067-7.318 0-14.104-3.305-18.616-9.067l-89.991-114.91c-2.56-3.27-7.285-3.844-10.552-1.283-3.268 2.559-3.843 7.284-1.284 10.552l89.991 114.91c7.381 9.425 18.481 14.831 30.452 14.831 11.972 0 23.071-5.406 30.452-14.832l132.089-168.664c26.847-34.28 42.092-76.494 42.928-118.865.027-1.374.041-2.75.041-4.13 0-54.966-21.426-106.623-60.331-145.454z"/><path d="m389.805 239.976c4.041.947 8.085-1.564 9.032-5.606 2.558-10.934 3.856-22.223 3.856-33.553 0-80.887-65.807-146.693-146.693-146.693-80.887 0-146.693 65.807-146.693 146.693s65.806 146.693 146.693 146.693c54.652 0 104.426-30.069 129.896-78.472 1.934-3.673.523-8.218-3.151-10.151-3.675-1.935-8.219-.522-10.151 3.151-22.864 43.448-67.54 70.439-116.593 70.439-72.598 0-131.66-59.062-131.66-131.66s59.062-131.66 131.66-131.66 131.66 59.063 131.66 131.66c0 10.179-1.165 20.315-3.461 30.128-.946 4.041 1.563 8.084 5.605 9.031z"/><path d="m333.056 137.633c-5.887-5.436-13.541-8.252-21.545-7.934-8.007.319-15.41 3.738-20.845 9.625l-55.152 59.736-15.372-14.857c-11.895-11.493-30.923-11.171-42.418.723-11.494 11.893-11.17 30.921.723 42.417 0 0 37.435 36.18 37.44 36.185 12.059 11.655 31.367 11.261 42.888-1.219l75.972-82.285c5.437-5.887 8.255-13.539 7.935-21.545-.322-8.008-3.739-15.41-9.626-20.846zm-9.356 32.192c-.02.021-75.973 82.286-75.973 82.286-2.714 2.941-6.566 4.693-10.56 4.806-4.038.127-7.925-1.387-10.834-4.199l-37.439-36.185c-5.933-5.735-6.095-15.228-.361-21.161 2.932-3.033 6.845-4.558 10.763-4.558 3.747 0 7.498 1.395 10.398 4.197l20.901 20.201c1.455 1.406 3.411 2.182 5.438 2.109 2.023-.058 3.936-.928 5.309-2.415 0 0 60.247-65.253 60.37-65.386 7.051-7.637 20.513-5.379 24.694 4.107 2.315 5.281 1.205 11.962-2.706 16.198z"/></g></g></svg>