<svg id="Layer_35" enable-background="new 0 0 64 64" height="512" viewBox="0 0 64 64" width="512" xmlns="http://www.w3.org/2000/svg"><path d="m53.06 28.94-.01.01-3.05 3.05-6 6-6 6-4 4h-2-7.8l1.23 2.05c.37.62.57 1.33.57 2.06v7.48c0 1.33-1.08 2.41-2.41 2.41h8.41 6 6 6 6v-33.83-.01c-.91.41-1.9.67-2.94.78z" fill="#ffeaa7"/><path d="m53.05 28.95-3.05 3.05-6 6-6 6-4 4h-2-7.8l-1.2-2v-2h9l15.88-15.88.01-.01c1.25.57 2.64.89 4.11.89.36 0 .71-.02 1.05-.05z" fill="#ccd1d9"/><path d="m26 52.11v7.48c0 1.33-1.08 2.41-2.41 2.41h-.07-.11c-1.33 0-2.41-1.08-2.41-2.41v-6.43c0-.19-.05-.37-.15-.53l-2.85-4.63h-1l-5.37 12.54c-.38.89-1.26 1.46-2.22 1.46-1.33 0-2.41-1.08-2.41-2.41v-.11c0-.32.06-.63.19-.93l4.81-11.55v-3h11v2l1.2 2 1.23 2.05c.37.62.57 1.33.57 2.06z" fill="#cf9e76"/><path d="m34 20.02v6.23l-3.33 5.41c-.85 1.38-1.97 2.56-3.28 3.47-1.3.91-2.79 1.55-4.39 1.87v7h-11v-6h-1l-4.38 10.52c-.38.9-1.25 1.48-2.22 1.48-1.33 0-2.4-1.07-2.4-2.4v-.14c0-.3.06-.61.17-.89l3.82-9.54c1.21-3.04 4.16-5.03 7.43-5.03h3.58 2.72c2.67 0 5.17-1.34 6.65-3.56l4.94-7.4c.43-.65 1.16-1.04 1.94-1.04h.41c.12 0 .23.01.34.02z" fill="#b4dd7f"/><circle cx="17" cy="26" fill="#f0d0b4" r="6"/><path d="m36 20c.69 0 1.36-.08 2-.22v11.22c0 .55-.22 1.05-.59 1.41-.36.37-.86.59-1.41.59-1.1 0-2-.9-2-2v-4.75-6.23-.24c.64.14 1.31.22 2 .22z" fill="#969faa"/><path d="m52 9c5.52 0 10 4.48 10 10 0 4.1-2.47 7.62-6 9.16-.91.41-1.9.67-2.94.78l-.01.01c-.34.03-.69.05-1.05.05-1.47 0-2.86-.32-4.11-.89-3.47-1.56-5.89-5.06-5.89-9.11 0-.47.03-.94.1-1.39 1.57-1.44 2.63-3.45 2.85-5.69v-.01c1.81-1.8 4.3-2.91 7.05-2.91z" fill="#fcd770"/><path d="m38 19.78c-.64.14-1.31.22-2 .22s-1.36-.08-2-.22c-4.01-.91-7-4.5-7-8.78 0-4.97 4.03-9 9-9s9 4.03 9 9c0 .31-.02.61-.05.91v.01c-.22 2.24-1.28 4.25-2.85 5.69-1.13 1.05-2.54 1.81-4.1 2.17z" fill="#e6e9ed"/><circle cx="36" cy="11" fill="#69d6f4" r="5"/><path d="m42 11c0-3.309-2.691-6-6-6s-6 2.691-6 6 2.691 6 6 6 6-2.691 6-6zm-10 0c0-2.206 1.794-4 4-4s4 1.794 4 4-1.794 4-4 4-4-1.794-4-4z"/><path d="m52 16c.552 0 1 .449 1 1h2c0-1.302-.839-2.402-2-2.816v-2.184h-2v2h-2v3c0 1.654 1.346 3 3 3 .552 0 1 .449 1 1v1h-1c-.552 0-1-.449-1-1h-2c0 1.302.839 2.402 2 2.816v2.184h2v-2h2v-3c0-1.654-1.346-3-3-3-.552 0-1-.449-1-1v-1z"/><path d="m63 19c0-6.065-4.935-11-11-11-2.194 0-4.289.639-6.075 1.827-.583-4.963-4.809-8.827-9.925-8.827-5.514 0-10 4.486-10 10 0 3.763 2.091 7.044 5.17 8.75-.262.211-.504.448-.696.736l-4.931 7.396c-.785 1.177-1.891 2.062-3.158 2.583 1.008-1.212 1.615-2.768 1.615-4.465 0-3.86-3.141-7-7-7s-7 3.14-7 7c0 2.006.853 3.813 2.21 5.09-3.194.425-5.927 2.51-7.15 5.567l-3.817 9.543c-.161.404-.243.829-.243 1.262v.138c0 1.875 1.525 3.4 3.4 3.4 1.378 0 2.609-.822 3.138-2.092l3.462-8.308v6.2l-4.737 11.371c-.175.418-.263.859-.263 1.311v.107c0 1.881 1.53 3.411 3.41 3.411 1.366 0 2.597-.812 3.135-2.067l5.025-11.724 2.43 3.947v6.433c0 1.881 1.53 3.411 3.41 3.411h.109.07 33.411v-34.214c3.556-1.825 6-5.522 6-9.786zm-35-8c0-4.411 3.589-8 8-8s8 3.589 8 8-3.589 8-8 8-8-3.589-8-8zm-1.713 38.535-.321-.535h5.034v12h-4.314c.197-.431.314-.906.314-1.411v-7.481c0-.906-.246-1.796-.713-2.573zm6.713-.535h1.414l2.586-2.586v14.586h-4zm6-4.586 4-4v20.586h-4zm6-6 4-4v26.586h-4zm-11.414 8.586h-8.82l-.766-1.277v-.723h8.414l15.716-15.716c.808.305 1.658.521 2.543.628zm-2-4h-7.586v-5.208c3.113-.838 5.825-2.85 7.524-5.611l1.476-2.398v1.217c0 1.654 1.346 3 3 3s3-1.346 3-3v-10.461c.717-.226 1.394-.538 2.032-.911.21 3.687 2.236 6.887 5.203 8.723zm3.414-22.051c.329.033.662.051 1 .051s.671-.018 1-.051v10.051c0 .551-.448 1-1 1s-1-.449-1-1zm-23 5.051c0-2.757 2.243-5 5-5s5 2.243 5 5-2.243 5-5 5-5-2.243-5-5zm-1.667 11-4.641 11.139c-.217.523-.724.861-1.292.861-.772 0-1.4-.628-1.4-1.4v-.138c0-.178.034-.354.101-.52l3.816-9.542c1.069-2.673 3.62-4.4 6.499-4.4h6.303c3.017 0 5.815-1.498 7.488-4.008l4.931-7.396c.201-.302.514-.498.862-.565v4.936l-3.179 5.166c-1.554 2.524-4.112 4.306-7.018 4.887l-.803.16v6.82h-9v-6zm13.187 24h-.11c-.777 0-1.41-.633-1.41-1.411v-6.433c0-.369-.103-.731-.297-1.048l-3.144-5.108h-2.218l-5.634 13.145c-.223.52-.731.855-1.297.855-.777 0-1.41-.633-1.41-1.411v-.107c0-.187.036-.369.108-.542l4.892-11.74v-2.2h9v1.277l2.572 4.288c.28.466.428 1 .428 1.543v7.481c0 .778-.633 1.411-1.41 1.411zm31.48 0h-4v-28.586l2.533-2.533c.5-.07.99-.171 1.467-.307zm-3-33c-4.963 0-9-4.038-9-9 0-.313.032-.621.064-.929 1.499-1.497 2.514-3.47 2.826-5.666 1.668-1.548 3.821-2.405 6.11-2.405 4.963 0 9 4.038 9 9s-4.037 9-9 9z"/></svg>