<svg id="filled_outline" height="512" viewBox="0 0 512 512" width="512" xmlns="http://www.w3.org/2000/svg" data-name="filled outline"><path d="m240 424h176l48 16v16h-224z" fill="#718799"/><path d="m200 152h48v288h-48z" fill="#718799"/><path d="m184 328-16-88h-104l-16 88z" fill="#d1e4ff"/><path d="m200 416-16-88h-136v88z" fill="#556c80"/><path d="m224 456h-136l-16-16h-48v-72h96l48 48h56z" fill="#548aff"/><circle cx="48" cy="440" fill="#556c80" r="24"/><circle cx="224" cy="440" fill="#556c80" r="24"/><path d="m136 328 24-32h18.182l5.818 32z" fill="#548aff"/><path d="m72 328 16-32h16v32z" fill="#548aff"/><path d="m248 240h240v40h-240z" fill="#ffb401"/><path d="m248 280h240v144h-240z" fill="#ffc431"/><path d="m336 240v88l16-16 16 16 16-16 16 16v-88z" fill="#ffd873"/><path d="m248 48h240v40h-240z" fill="#ffb401"/><path d="m248 88h240v152h-240z" fill="#ffc431"/><path d="m336 48v88l16-16 16 16 16-16 16 16v-88z" fill="#ffd873"/><path d="m488 40h-240a8.00039 8.00039 0 0 0 -8 8v96h-40a8.00039 8.00039 0 0 0 -8 8v24h-8v16h8v16h-8v16h8v103.27832l-16.12891-88.709a7.99967 7.99967 0 0 0 -7.87109-6.56932h-104a7.99967 7.99967 0 0 0 -7.87109 6.56934l-16 88a7.98662 7.98662 0 0 0 -.12891 1.43066v32h-16a8.00039 8.00039 0 0 0 -8 8v72a31.9938 31.9938 0 0 0 60.05664 15.37109l6.28613 6.28614a8.00235 8.00235 0 0 0 5.65723 2.34277h114.86816a31.90967 31.90967 0 0 0 42.26368 0h218.86816a8.00039 8.00039 0 0 0 8-8v-16a8.00026 8.00026 0 0 0 -5.46973-7.58984l-1.23047-.41016h22.7002a8.00039 8.00039 0 0 0 8-8v-376a8.00039 8.00039 0 0 0 -8-8zm-8 192h-224v-136h72v40a8.00066 8.00066 0 0 0 13.65723 5.65723l10.34277-10.34375 10.34277 10.34375a8.003 8.003 0 0 0 11.31446 0l10.34277-10.34375 10.34277 10.34375a8.00066 8.00066 0 0 0 13.65723-5.65723v-40h72zm-152 40h-72v-24h72zm16-24h48v60.68652l-2.34277-2.34375a8.003 8.003 0 0 0 -11.31446 0l-10.34277 10.34375-10.34277-10.34375a8.003 8.003 0 0 0 -11.31446 0l-2.34277 2.34375zm64 0h72v24h-72zm-64-192h48v60.68652l-2.34277-2.34375a8.003 8.003 0 0 0 -11.31446 0l-10.34277 10.34375-10.34277-10.34375a8.003 8.003 0 0 0 -11.31446 0l-2.34277 2.34375zm64 0h72v24h-72zm-152 0h72v24h-72zm-48 152v-16h16v-16h-16v-16h32v252.30518a31.79447 31.79447 0 0 0 -16-4.30518h-16v-184h16v-16zm-33.58594 112h-22.41406l12-16h7.50513zm-103.7373-72h90.64648l7.27271 40h-8.59595a8.0009 8.0009 0 0 0 -6.40039 3.2002l-21.59985 28.7998h-19.99976v-24a8.00039 8.00039 0 0 0 -8-8h-16a8.00022 8.00022 0 0 0 -7.15527 4.42188l-13.78907 27.57812h-9.47zm25.32324 72h-11.05566l8-16h3.05566zm-40 16h121.32324l13.09107 72h-19.10083l-45.65625-45.65723a8.00235 8.00235 0 0 0 -5.65723-2.34277h-64zm-8 120a16 16 0 1 1 16-16 16.01833 16.01833 0 0 1 -16 16zm31.80347-19.51074a31.97037 31.97037 0 0 0 -47.80347-24.18408v-36.30518h84.68652l45.65625 45.65723a8.00235 8.00235 0 0 0 5.65723 2.34277h28.30518a31.95487 31.95487 0 0 0 -3.29248 24h-101.69922zm144.19653 19.51074a16 16 0 1 1 16-16 16.01833 16.01833 0 0 1 -16 16zm232-8h-201.0127a31.95275 31.95275 0 0 0 1.0127-8v-8h158.70215l41.29785 13.76562zm-40-32h-160v-128h72v40a8.00066 8.00066 0 0 0 13.65723 5.65723l10.34277-10.34375 10.34277 10.34375a8.003 8.003 0 0 0 11.31446 0l10.34277-10.34375 10.34277 10.34375a8.00066 8.00066 0 0 0 13.65723-5.65723v-40h72v128z"/></svg>